<svg xmlns="http://www.w3.org/2000/svg" xmlns:xlink="http://www.w3.org/1999/xlink" width="183.13" height="290.81" viewBox="0 0 183.13 290.81">
  <defs>
    <clipPath id="ee7385ba-56e2-4668-b642-1efd38374461" transform="translate(-127.64 -74.59)">
      <polygon points="128.58 225.16 219.33 278.78 219.33 74.59 128.58 225.16" style="fill: none"/>
    </clipPath>
    <clipPath id="e567ade3-b7bf-4154-9421-d3e8da541df4" transform="translate(-127.64 -74.59)">
      <path d="M310.73,225.16,220,278.78V74.59ZM220,365.41V291.16l90.79-53.63Z" style="fill: none"/>
    </clipPath>
  </defs>
  <g id="f7b0333f-b3fd-46de-bb77-10aca5f123d3" data-name="Layer 1">
    <polygon points="1.59 150.56 92.34 204.19 92.34 0 1.59 150.56" style="fill: #00008b;isolation: isolate"/>
    <polygon points="183.09 150.56 92.34 204.19 92.34 0 183.09 150.56" style="fill: #00008b;isolation: isolate"/>
    <polygon points="92.34 290.81 92.34 216.56 1.59 162.94 92.34 290.81" style="fill: #00008b;isolation: isolate"/>
    <polygon points="92.34 290.81 92.34 216.56 183.13 162.94 92.34 290.81" style="fill: #00008b;isolation: isolate"/>
  </g>
  <g id="b2c85f2a-f796-447f-9f89-8a19709c2e06" data-name="Union Jack">
    <g style="clip-path: url(#ee7385ba-56e2-4668-b642-1efd38374461)">
      <g>
        <path id="bf217cb8-3214-47e9-aef9-cd071e79f818" data-name="White Cross" d="M165.4,163.05l15.11-24.93,24.93,15.11L243.2,90.9,268.13,106l-37.76,62.32,24.93,15.11-15.11,24.93-24.93-15.11L177.5,255.58l-24.93-15.1,37.76-62.33Z" transform="translate(-127.64 -74.59)" style="fill: #fff"/>
        <path id="a441d851-e6ff-4d36-ab73-6ade8919f127" data-name="White Diagonal" d="M127.64,225.37l10.13-16.72,146.93-92.6,8.36,5.07-10.13,16.72L136,230.44Z" transform="translate(-127.64 -74.59)" style="fill: #fff"/>
        <g id="f2fbc104-0db8-42ea-81db-69d20a6b94bc" data-name="White Diagonal Flipped">
          <path id="b4fbe690-6e2e-4bff-82be-1405ad89dee4" data-name="White Diagonal" d="M218.27,75.8,208.14,92.52l-14.08,173.1,8.36,5.07L212.56,254,226.64,80.87Z" transform="translate(-127.64 -74.59)" style="fill: #fff"/>
        </g>
        <path id="a15c977f-cfa0-4713-b787-f7da87fed649" data-name="Red Cross" d="M168.43,158.06l9.06-14.95,29.91,18.12,40.79-67.3L263.14,103,222.36,170.3l29.91,18.12-9.06,15L213.3,185.25l-40.79,67.31-15-9.06,40.79-67.31Z" transform="translate(-127.64 -74.59)" style="fill: red"/>
        <path id="bcddfa08-7370-49b0-ae57-3e92daca5a8e" data-name="Red Diagonals" d="M127.64,225.37l55.14-34.75L176,201.77l-42.81,27ZM218.27,75.8,211.52,87l-5.28,65L213,140.76Z" transform="translate(-127.64 -74.59)" style="fill: red"/>
        <g id="e5f68bab-5be2-4794-8d40-0ed3a9cc6f71" data-name="Red Diagonals Rotated">
          <path id="ec14f085-257f-46e1-9f7a-8289546ddc1c" data-name="Red Diagonals" d="M293.06,121.12l-55.14,34.75,6.75-11.15,42.82-27ZM202.42,270.69l6.76-11.15,5.28-65-6.75,11.14Z" transform="translate(-127.64 -74.59)" style="fill: red"/>
        </g>
      </g>
    </g>
  </g>
  <g id="a2eba4ff-422c-4a50-819c-d15fc208250b" data-name="Southern Cross">
    <g style="clip-path: url(#e567ade3-b7bf-4154-9421-d3e8da541df4)">
      <g>
        <polygon id="b09669d9-0a3c-43a8-a9e0-70b1a330e006" data-name="Star7" points="116.3 197.97 116.73 205.31 124.04 204.49 118.58 209.41 123.75 214.61 116.51 213.4 115.67 220.7 112.1 214.28 105.87 218.18 108.66 211.38 101.74 208.94 108.79 206.89 106.38 199.95 112.38 204.19 116.3 197.97" style="fill: #fff"/>
        <polygon id="b4d49275-f14b-440e-9ced-072f16f6d521" data-name="Star7" points="92.88 125.22 93.32 132.55 100.62 131.75 95.16 136.66 100.34 141.86 93.09 140.65 92.26 147.95 88.68 141.53 82.46 145.43 85.25 138.63 78.32 136.19 85.37 134.13 82.96 127.2 88.96 131.43 92.88 125.22" style="fill: #fff"/>
        <polygon id="bca23623-8e8d-4c4c-99ec-9ee767fb6fad" data-name="Star7" points="143.42 92.57 143.86 99.91 151.16 99.1 145.7 104.01 150.88 109.22 143.64 108.01 142.8 115.3 139.23 108.89 133 112.78 135.79 105.99 128.86 103.55 135.91 101.49 133.5 94.56 139.5 98.79 143.42 92.57" style="fill: #fff"/>
        <polygon id="bf40e781-01e8-4e91-92c7-9d82c9123c46" data-name="Star7" points="170.25 133.9 170.69 141.22 177.99 140.42 172.53 145.33 177.71 150.53 170.46 149.33 169.63 156.63 166.05 150.21 159.83 154.1 162.61 147.31 155.69 144.87 162.74 142.81 160.33 135.88 166.33 140.11 170.25 133.9" style="fill: #fff"/>
        <polygon id="a30491bc-1a64-4521-bc8d-2b23de09ccf9" data-name="Star5" points="142.76 160.64 143.4 165.3 147.86 166.8 143.62 168.84 143.57 173.55 140.32 170.15 135.82 171.56 138.05 167.41 135.33 163.57 139.96 164.41 142.76 160.64" style="fill: #fff"/>
      </g>
    </g>
    <polygon id="eeb89f5c-f4f0-4c08-9e28-f7c0e1742acc" data-name="Star7" points="75.95 217.04 79.07 226.72 88.58 223.11 82.95 231.58 91.69 236.77 81.56 237.65 82.96 247.72 75.95 240.35 68.95 247.72 70.35 237.65 60.22 236.77 68.96 231.58 63.34 223.11 72.84 226.72 75.95 217.04" style="fill: #fff"/>
  </g>
</svg>
